<svg xmlns="http://www.w3.org/2000/svg" version="1.0" width="300.000000pt" height="400.000000pt" viewBox="0 0 300.000000 400.000000" preserveAspectRatio="xMidYMid meet">
        <g transform="translate(0.000000,400.000000) scale(0.100000,-0.100000)" fill="#000000" stroke="none">
        <path d="M1110 3718 c22 -52 90 -359 96 -435 4 -46 11 -83 16 -83 5 0 6 -5 3 -10 -5 -9 1 -103 18 -254 2 -15 -9 -21 -51 -32 -71 -18 -109 -39 -155 -86 l-38 -38 -42 30 c-23 17 -76 53 -117 81 -41 28 -85 60 -97 72 -13 11 -26 17 -30 13 -5 -4 37 -51 92 -104 55 -53 93 -92 85 -87 -13 8 -13 6 -1 -8 7 -9 18 -14 24 -10 6 3 7 1 3 -5 -4 -7 3 -16 18 -22 l25 -9 -41 -68 c-23 -37 -58 -104 -79 -148 l-38 -80 -83 -1 c-53 0 -72 2 -53 7 30 7 30 7 3 8 -34 1 -351 55 -443 75 -83 18 -175 26 -175 16 0 -4 24 -11 53 -14 29 -4 86 -15 126 -26 40 -10 79 -16 87 -13 8 3 14 1 14 -5 0 -10 130 -55 159 -55 9 0 18 -3 21 -6 3 -4 39 -21 80 -38 121 -50 179 -66 165 -43 -3 6 -1 10 4 10 6 0 11 -5 11 -11 0 -5 4 -8 8 -5 5 3 9 -16 11 -42 3 -70 28 -187 49 -235 l19 -43 -26 -19 c-14 -10 -64 -51 -111 -90 -47 -40 -106 -84 -132 -99 -45 -26 -69 -47 -30 -28 9 5 40 19 67 31 61 26 161 78 195 101 14 10 35 21 48 24 12 4 20 12 17 17 -4 5 -4 9 -1 9 3 0 13 -15 22 -32 32 -63 105 -148 139 -162 l33 -14 -13 -39 c-8 -21 -14 -47 -15 -59 0 -11 -5 -25 -12 -32 -7 -7 -8 -12 -4 -12 4 0 -2 -16 -14 -36 -12 -19 -20 -38 -17 -41 3 -3 0 -12 -8 -19 -8 -8 -12 -21 -9 -28 3 -8 1 -17 -5 -21 -6 -3 -11 -15 -11 -26 0 -10 -4 -19 -10 -19 -5 0 -7 -6 -4 -14 3 -7 -2 -20 -10 -29 -8 -8 -12 -17 -9 -21 3 -3 -1 -14 -9 -23 -9 -10 -19 -29 -23 -43 -4 -14 -29 -70 -56 -126 -52 -106 -69 -164 -50 -164 6 0 11 8 11 18 0 9 9 32 20 50 11 17 15 32 9 32 -5 0 -7 5 -4 10 4 6 11 7 17 4 6 -4 8 -3 5 3 -6 10 54 134 79 163 18 22 37 73 23 65 -6 -4 -5 2 2 13 7 12 17 18 23 15 5 -4 7 0 4 9 -7 17 46 101 57 90 3 -4 5 -2 3 3 -2 6 1 11 5 12 9 3 58 91 61 110 1 7 11 20 22 29 10 8 13 13 7 9 -15 -7 -17 4 -3 25 9 13 10 13 10 0 1 -8 8 -2 16 13 13 25 19 27 52 22 20 -4 59 -13 85 -22 33 -10 77 -14 142 -11 l95 3 0 -26 c0 -57 61 -211 78 -194 3 3 16 -5 29 -17 13 -12 23 -17 23 -12 -1 18 -35 73 -45 72 -5 0 -14 8 -20 18 -5 10 -16 23 -22 29 -7 6 -9 15 -5 23 8 12 22 -6 36 -52 4 -10 9 -16 13 -13 3 4 -1 26 -10 49 -8 24 -18 62 -21 85 -5 37 -3 44 16 57 33 21 78 31 78 16 0 -6 -4 -9 -9 -5 -6 3 -10 -3 -10 -12 0 -10 -5 -38 -11 -63 -15 -59 -7 -104 35 -192 32 -68 61 -166 52 -175 -3 -2 -10 17 -16 43 -8 32 -15 44 -22 37 -7 -7 -6 -20 4 -39 20 -40 26 -68 43 -206 8 -66 19 -129 25 -139 5 -11 7 -19 3 -19 -3 0 -2 -6 3 -12 6 -7 18 -35 27 -63 22 -69 68 -175 62 -145 -2 14 -21 72 -41 130 -38 109 -64 245 -66 340 0 42 -3 50 -10 35 -6 -15 -8 -9 -4 20 6 46 -11 114 -50 200 -36 81 -43 150 -20 224 16 52 22 60 61 79 l44 22 49 -31 c35 -21 62 -49 90 -94 23 -35 51 -69 63 -76 21 -11 20 -9 -4 17 -15 16 -38 54 -51 84 -31 69 -77 128 -97 123 -8 -3 -4 6 10 19 14 13 48 64 74 113 27 50 49 91 50 92 1 1 21 -2 46 -7 25 -4 77 -11 115 -14 171 -16 289 -36 536 -92 58 -13 114 -24 125 -23 23 1 -92 30 -235 60 -126 25 -365 105 -462 155 -72 36 -86 38 -75 8 4 -11 13 -14 27 -11 12 3 22 0 26 -9 3 -9 13 -13 22 -10 13 5 13 3 -2 -8 -16 -12 -16 -14 -2 -20 11 -4 14 -2 9 6 -5 8 -2 9 12 4 10 -5 28 -10 39 -11 11 -2 33 -8 49 -14 22 -9 26 -15 18 -23 -9 -9 -16 -7 -28 8 -8 10 -13 14 -10 7 4 -6 1 -15 -5 -19 -8 -5 -9 -3 -4 6 6 10 4 12 -8 7 -10 -3 -17 -3 -17 1 0 8 -142 33 -149 26 -2 -2 7 -8 20 -14 l24 -10 -25 3 c-21 2 -25 6 -22 32 2 16 7 32 10 35 4 3 7 26 7 53 2 209 4 229 25 234 11 3 20 10 20 16 0 6 3 8 6 4 3 -3 29 3 58 15 28 11 83 31 121 44 l70 23 -50 -6 c-27 -3 -78 -12 -113 -20 -35 -7 -83 -14 -108 -15 -24 0 -41 -5 -38 -10 3 -4 29 -6 57 -3 34 3 45 2 32 -3 -11 -5 -26 -7 -32 -5 -7 3 -13 1 -13 -4 0 -4 -9 -14 -21 -21 -12 -8 -18 -9 -15 -3 4 5 2 12 -2 15 -5 3 -24 47 -42 98 -20 57 -46 109 -67 133 -19 22 -37 45 -41 50 -85 115 -118 147 -191 180 -36 16 -40 21 -34 44 4 14 7 47 7 74 0 31 3 43 9 35 6 -9 7 -6 4 9 -3 13 -2 25 3 28 4 3 11 25 14 50 4 25 18 82 31 126 13 45 20 77 15 73 -5 -5 -18 -40 -28 -79 -11 -38 -29 -94 -41 -122 -11 -29 -17 -53 -13 -53 4 0 2 -4 -4 -8 -5 -4 -19 -23 -31 -42 -17 -30 -18 -38 -7 -60 11 -20 14 -22 19 -8 4 9 1 27 -5 40 -10 21 -10 22 4 5 11 -14 15 -15 19 -5 2 7 2 0 -1 -17 -3 -16 -5 -35 -5 -42 0 -8 -6 -9 -19 -2 -10 5 -18 16 -18 24 0 8 -5 15 -11 15 -5 0 -8 -4 -5 -9 3 -5 -1 -14 -8 -21 -11 -9 -20 -9 -37 0 -12 7 -74 14 -138 15 -64 2 -118 7 -120 12 -20 45 -20 53 -3 53 9 0 23 -9 30 -20 13 -22 3 -27 -15 -9 -9 9 -11 7 -7 -8 4 -14 12 -19 25 -16 23 6 23 8 0 85 -25 83 -61 226 -66 261 -5 31 -37 161 -64 257 -10 36 -26 95 -36 133 -9 37 -21 67 -26 67 -5 0 -4 -10 1 -22z m157 -673 c0 -8 -4 -15 -9 -15 -4 0 -8 7 -8 15 0 8 4 15 8 15 5 0 9 -7 9 -15z m26 -39 c4 -10 1 -13 -9 -9 -15 6 -19 23 -5 23 5 0 11 -7 14 -14z m217 -108 c102 -15 181 -60 251 -141 29 -34 74 -83 99 -109 37 -38 56 -73 94 -168 46 -116 48 -124 47 -218 -1 -53 -6 -113 -11 -132 -25 -98 -40 -144 -48 -149 -5 -3 -12 -16 -16 -28 -4 -12 -18 -38 -32 -58 -13 -20 -21 -41 -18 -47 4 -7 2 -8 -4 -4 -6 4 -19 -5 -28 -19 -9 -14 -25 -30 -35 -36 -15 -8 -22 -2 -43 34 -14 24 -29 58 -32 75 -4 18 -10 32 -14 32 -4 0 -11 11 -14 24 -3 13 -9 31 -12 40 -4 11 0 16 12 17 16 0 15 2 -4 9 -13 6 -32 29 -44 57 -18 40 -20 65 -19 175 1 70 -3 128 -8 128 -5 0 -11 12 -14 28 -9 42 -71 130 -116 165 -23 17 -41 37 -41 45 0 7 -3 11 -8 8 -4 -2 -16 2 -27 10 -18 13 -17 14 13 14 22 0 42 10 64 31 18 17 26 28 18 24 -10 -4 -9 -1 3 8 9 8 17 22 17 31 0 10 5 14 11 10 7 -4 10 -2 8 5 -7 19 -129 70 -167 71 -47 0 -100 -27 -117 -61 -23 -43 -24 -152 -2 -176 9 -11 17 -33 17 -50 0 -25 7 -36 34 -53 19 -11 36 -26 38 -32 6 -18 47 1 61 28 12 23 15 24 26 10 19 -22 -20 -145 -59 -190 -34 -39 -35 -41 -15 -79 14 -27 13 -29 -21 -59 -44 -39 -64 -77 -64 -123 0 -55 42 -124 75 -125 6 0 -2 10 -17 23 -51 41 -62 116 -27 173 11 19 24 32 29 29 4 -3 13 2 20 10 7 8 9 15 4 15 -5 1 2 7 16 14 14 8 28 12 32 10 5 -3 8 -1 8 3 0 5 -10 13 -22 18 -32 14 -34 41 -5 83 14 20 35 69 48 109 21 68 22 73 6 91 -12 13 -15 28 -11 50 l6 31 55 -42 c34 -25 50 -43 42 -45 -8 -3 -22 -12 -32 -20 -15 -13 -17 -33 -16 -151 2 -125 0 -142 -25 -210 -34 -94 -72 -168 -87 -173 -17 -6 -2 -28 19 -28 22 0 122 47 145 68 11 9 24 26 29 37 8 14 3 12 -14 -7 -27 -28 -102 -71 -110 -62 -3 2 -11 -2 -18 -11 -7 -8 -22 -15 -34 -14 -11 0 -15 3 -8 6 16 6 58 88 90 178 23 62 26 86 26 210 1 77 5 146 9 153 18 27 48 13 68 -32 31 -71 34 -123 11 -204 -22 -76 -20 -93 3 -39 l14 32 1 -58 c0 -44 7 -70 30 -114 17 -32 36 -77 42 -100 5 -24 13 -41 17 -39 3 2 4 -21 1 -51 -4 -47 -9 -57 -28 -64 -22 -8 -22 -8 -7 13 30 43 9 161 -39 227 -14 18 -28 51 -31 72 -4 21 -11 39 -16 39 -15 0 1 -72 21 -95 30 -34 59 -100 66 -153 5 -39 2 -57 -12 -82 -18 -30 -21 -32 -69 -27 -27 3 -76 11 -107 18 -46 10 -74 11 -140 1 -45 -6 -87 -17 -92 -23 -8 -8 -6 -10 9 -5 103 29 163 32 244 11 72 -18 129 -23 164 -14 24 7 27 5 27 -16 0 -20 -12 -28 -82 -56 -72 -28 -95 -32 -178 -32 -96 -1 -220 23 -303 58 -124 52 -234 189 -293 367 -25 73 -28 98 -29 208 l0 125 50 100 c109 218 187 307 303 346 107 35 193 40 342 17z m-623 -60 c-1 -6 4 -13 12 -16 9 -3 11 0 6 8 -5 9 -4 11 4 6 6 -4 10 -10 8 -14 -2 -4 4 -15 15 -24 10 -10 18 -13 18 -7 0 5 5 7 10 4 6 -4 8 -11 5 -16 -3 -5 1 -6 11 -2 14 5 15 3 4 -17 l-13 -24 -31 36 c-17 20 -44 44 -59 53 -15 10 -25 20 -22 23 3 3 -3 14 -12 26 -16 18 -15 17 14 -3 18 -12 32 -27 30 -33z m506 -31 c5 -15 71 -37 109 -37 17 0 24 -6 24 -19 0 -11 -4 -19 -9 -18 -5 1 -11 -9 -13 -23 -6 -35 -22 -47 -18 -13 3 25 3 25 -6 -4 -10 -30 -14 -33 -50 -33 -33 0 -40 3 -40 20 0 12 -5 17 -14 14 -8 -3 -21 5 -30 18 -16 22 -18 22 -30 6 -7 -10 -16 -18 -20 -18 -13 0 -5 19 20 49 14 17 21 31 14 31 -6 0 -8 5 -4 11 5 8 8 8 14 0 9 -16 42 -2 36 15 -3 8 -1 14 3 14 5 0 11 -6 14 -13z m52 0 c16 -13 15 -14 -13 -9 -18 2 -32 8 -32 13 0 13 24 11 45 -4z m-139 -39 c-3 -13 -5 -24 -5 -26 -1 -2 -6 0 -11 3 -7 4 -7 13 0 26 14 25 21 24 16 -3z m100 -140 c37 -40 41 -62 21 -111 -19 -45 -43 -63 -62 -47 -8 7 -12 17 -8 23 4 6 1 7 -6 3 -19 -12 -51 24 -51 57 0 17 -7 38 -15 47 -26 29 -24 72 4 86 30 16 64 -1 117 -58z m-973 -155 c-7 -2 -19 -2 -25 0 -7 3 -2 5 12 5 14 0 19 -2 13 -5z m37 -18 c0 -8 -2 -15 -4 -15 -2 0 -6 7 -10 15 -3 8 -1 15 4 15 6 0 10 -7 10 -15z m83 -10 c9 -9 28 -13 46 -11 17 2 28 0 26 -4 -7 -11 127 -24 157 -15 20 5 21 4 7 -7 -25 -20 -25 -26 -4 -42 26 -20 17 -20 -30 0 -20 8 -34 10 -30 5 3 -7 -3 -11 -15 -11 -16 0 -20 4 -15 19 4 14 0 20 -20 23 -14 3 -25 1 -25 -6 0 -7 -3 -8 -8 -1 -4 6 -14 11 -22 11 -8 0 -33 3 -54 8 -29 6 -36 10 -25 17 11 7 10 9 -6 10 -11 1 -29 1 -40 1 -16 -2 -17 0 -5 8 22 14 46 12 63 -5z m127 -75 c0 -5 -4 -10 -10 -10 -5 0 -10 5 -10 10 0 6 5 10 10 10 6 0 10 -4 10 -10z m1428 -367 c-10 -2 -26 -2 -35 0 -10 3 -2 5 17 5 19 0 27 -2 18 -5z m-1230 -21 c2 -8 -3 -10 -13 -5 -15 5 -16 3 -5 -17 8 -14 8 -20 1 -16 -6 4 -30 -6 -53 -22 -41 -28 -78 -45 -78 -38 0 2 16 14 36 25 20 12 34 25 30 28 -3 4 5 19 20 34 26 27 55 32 62 11z m1402 14 c0 -3 -4 -8 -10 -11 -5 -3 -10 -1 -10 4 0 6 5 11 10 11 6 0 10 -2 10 -4z m-522 -188 c23 -40 22 -42 -22 -52 -28 -7 -29 -6 -22 25 3 17 6 50 7 73 1 35 2 37 8 16 5 -14 18 -42 29 -62z m76 -34 c9 -3 16 -10 16 -14 0 -12 -33 -5 -38 8 -4 14 0 15 22 6z m-729 -58 c-15 -10 -16 -16 -6 -32 11 -18 12 -18 6 2 -5 18 -1 21 23 20 17 -1 29 -7 29 -14 0 -8 -8 -12 -17 -9 -13 3 -16 0 -13 -13 3 -10 -3 -24 -14 -31 -10 -8 -20 -23 -21 -34 -2 -11 -9 -23 -15 -27 -9 -6 -8 -11 3 -19 13 -9 13 -10 -2 -5 -12 3 -24 -7 -42 -39 -14 -24 -26 -51 -26 -59 0 -9 -5 -16 -11 -16 -12 0 -3 36 17 65 8 11 14 26 14 35 0 8 12 24 26 34 17 13 25 28 24 45 -6 80 0 107 21 108 20 2 20 1 4 -11z m475 -60 c0 -11 -19 -15 -25 -6 -3 5 1 10 9 10 9 0 16 -2 16 -4z m-519 -59 c-10 -9 -11 -8 -5 6 3 10 9 15 12 12 3 -3 0 -11 -7 -18z"/>
        <path d="M1550 2712 c0 -28 -35 -72 -58 -72 -6 0 -14 -4 -17 -10 -3 -6 1 -7 9 -4 9 3 16 1 16 -5 0 -7 24 -35 53 -64 45 -44 55 -61 67 -112 8 -33 16 -52 18 -42 5 26 -24 107 -58 161 -17 26 -30 56 -30 66 0 11 -5 20 -11 20 -6 0 -3 7 5 16 9 8 16 21 16 29 0 7 3 20 6 29 3 9 1 16 -5 16 -6 0 -11 -13 -11 -28z m-10 -105 c0 -5 -4 -5 -10 -2 -5 3 -10 14 -10 23 0 15 2 15 10 2 5 -8 10 -19 10 -23z"/>
        <path d="M1572 2272 c-7 -42 -12 -92 -12 -110 0 -36 -16 -70 -68 -150 -19 -29 -33 -55 -30 -57 3 -3 27 27 53 67 41 62 49 82 56 143 4 38 11 96 15 128 10 84 0 70 -14 -21z"/>
        <path d="M1285 1899 c-79 -18 -185 -86 -185 -118 1 -10 7 -5 16 11 18 34 95 75 184 99 67 18 56 24 -15 8z"/>
        <path d="M1390 2753 c0 -6 -3 -18 -6 -27 -3 -9 -2 -16 4 -16 15 0 21 25 11 41 -5 9 -9 9 -9 2z"/>
        <path d="M1345 2740 c-2 -4 2 -16 10 -26 13 -16 14 -17 9 -1 -3 9 -1 17 5 17 6 0 11 4 11 8 0 10 -29 12 -35 2z"/>
        <path d="M1413 2735 c0 -11 4 -12 14 -3 19 15 27 4 14 -20 -15 -28 -14 -39 4 -39 8 0 12 4 9 9 -13 21 7 57 34 61 15 2 5 5 -24 6 -39 1 -51 -2 -51 -14z"/>
        <path d="M1401 2684 c0 -11 3 -14 6 -6 3 7 2 16 -1 19 -3 4 -6 -2 -5 -13z"/>
        <path d="M1304 2636 c-10 -8 -17 -17 -14 -19 3 -3 14 1 24 9 11 7 17 16 15 19 -3 3 -14 -2 -25 -9z"/>
        <path d="M1324 2606 c-3 -9 -10 -13 -15 -10 -5 3 -6 -2 -3 -11 6 -14 9 -13 21 5 8 12 12 24 9 27 -3 3 -8 -2 -12 -11z"/>
        <path d="M1367 2602 c-20 -22 -21 -36 -4 -51 20 -16 50 9 45 39 -4 30 -20 35 -41 12z m33 -11 c0 -23 -25 -46 -35 -32 -7 13 12 51 25 51 6 0 10 -8 10 -19z"/>
        <path d="M1320 2519 c0 -5 5 -7 10 -4 6 3 10 8 10 11 0 2 -4 4 -10 4 -5 0 -10 -5 -10 -11z"/>
        <path d="M815 1960 c-10 -11 -15 -20 -11 -20 11 0 39 30 34 36 -3 2 -13 -5 -23 -16z"/>
        <path d="M2405 3162 c-60 -59 -162 -147 -225 -195 -63 -48 -147 -113 -185 -145 -39 -31 -86 -69 -105 -83 -23 -17 -31 -30 -25 -39 6 -10 14 -6 34 16 14 17 22 24 18 18 -5 -7 -3 -22 3 -33 8 -15 8 -21 0 -21 -6 0 -8 -5 -4 -12 4 -7 3 -8 -4 -4 -8 4 -12 0 -12 -11 1 -12 19 2 58 46 31 35 87 93 125 130 305 296 450 440 442 440 -5 1 -59 -48 -120 -107z m-246 -239 c-36 -45 -44 -53 -55 -53 -14 0 -88 -75 -136 -137 -26 -34 -34 -40 -41 -28 -9 17 0 38 12 30 5 -2 16 4 26 15 10 11 15 20 10 20 -4 0 -14 -8 -21 -17 -7 -10 -14 -13 -14 -6 0 6 15 22 33 34 17 13 48 37 67 55 34 32 121 102 129 103 2 1 -3 -7 -10 -16z"/>
        </g>
</svg>
